# Wavefront OBJ exported by MilkShape 3D

mtllib coin.mtl

v -0.000331 1.000000 0.000334
v 16.000019 1.000000 16.000017
v 21.856409 1.000000 5.856724
v 21.856409 1.000000 -5.856723
v 16.000019 1.000000 -16.000017
v 5.856726 1.000000 -21.856407
v -5.856721 1.000000 -21.856407
v -16.000015 1.000000 -16.000017
v -21.856405 1.000000 -5.856723
v -21.856405 1.000000 5.856724
v -16.000015 1.000000 16.000017
v -5.856721 1.000000 21.856407
v 5.856726 1.000000 21.856407
v -0.000331 -2.000000 0.000334
v 16.000019 -2.000000 16.000017
v 21.856409 -2.000000 5.856724
v 21.856409 -2.000000 -5.856723
v 16.000019 -2.000000 -16.000017
v 5.856726 -2.000000 -21.856407
v -5.856721 -2.000000 -21.856407
v -16.000015 -2.000000 -16.000017
v -21.856405 -2.000000 -5.856723
v -21.856405 -2.000000 5.856724
v -16.000015 -2.000000 16.000017
v -5.856721 -2.000000 21.856407
v 5.856726 -2.000000 21.856407
# 26 vertices

vt 0.250000 0.500000
vt 0.421875 0.156250
vt 0.312500 0.031250
vt 0.523438 0.843750
vt 0.554688 0.843750
vt 0.554688 0.882813
vt 0.523438 0.882813
vt 0.746094 0.500000
vt 0.808594 0.031250
vt 0.921875 0.156250
vt 0.183594 0.031250
vt 0.480469 0.843750
vt 0.480469 0.882813
vt 0.683594 0.031250
vt 0.074219 0.156250
vt 0.445313 0.843750
vt 0.445313 0.882813
vt 0.574219 0.156250
vt 0.011719 0.375000
vt 0.476563 0.843750
vt 0.441406 0.843750
vt 0.441406 0.882813
vt 0.476563 0.882813
vt 0.511719 0.375000
vt 0.011719 0.625000
vt 0.519531 0.843750
vt 0.519531 0.882813
vt 0.511719 0.625000
vt 0.074219 0.843750
vt 0.574219 0.843750
vt 0.183594 0.968750
vt 0.476563 0.906250
vt 0.445313 0.906250
vt 0.445313 0.945313
vt 0.476563 0.945313
vt 0.683594 0.968750
vt 0.312500 0.968750
vt 0.515625 0.906250
vt 0.515625 0.945313
vt 0.808594 0.968750
vt 0.421875 0.843750
vt 0.550781 0.906250
vt 0.550781 0.945313
vt 0.921875 0.843750
vt 0.484375 0.625000
vt 0.441406 0.906250
vt 0.441406 0.945313
vt 0.984375 0.625000
vt 0.484375 0.375000
vt 0.519531 0.906250
vt 0.519531 0.945313
vt 0.984375 0.375000
vt 0.554688 0.906250
vt 0.554688 0.945313
# 54 texture coordinates

vn 0.000000 1.000000 0.000000
vn 0.528554 0.566498 0.632226
vn 0.773850 0.566500 0.283256
vn 0.632226 -0.566498 0.528554
vn 0.811800 -0.566500 0.141628
vn 0.000000 -1.000000 0.000000
vn 0.811800 0.566500 -0.141628
vn 0.773850 -0.566500 -0.283256
vn 0.632226 0.566498 -0.528554
vn 0.528554 -0.566498 -0.632226
vn 0.283256 0.566500 -0.773850
vn 0.141628 -0.566500 -0.811800
vn -0.141628 0.566500 -0.811800
vn -0.283256 -0.566500 -0.773850
vn -0.528554 0.566498 -0.632226
vn -0.632226 -0.566498 -0.528554
vn -0.773850 0.566500 -0.283256
vn -0.811800 -0.566500 -0.141628
vn -0.811800 0.566500 0.141628
vn -0.773850 -0.566500 0.283256
vn -0.632226 0.566498 0.528554
vn -0.528554 -0.566498 0.632226
vn -0.283256 0.566500 0.773850
vn -0.141628 -0.566500 0.811800
vn 0.141628 0.566500 0.811800
vn 0.283256 -0.566500 0.773850
# 26 normals

g Frame 1
usemtl mat_coin_1
s 1
f 1/1/1 2/2/2 3/3/3
f 3/4/3 2/5/2 15/6/4
f 15/6/4 16/7/5 3/4/3
f 14/8/6 16/9/5 15/10/4
f 1/1/1 3/3/3 4/11/7
f 4/12/7 3/4/3 16/7/5
f 16/7/5 17/13/8 4/12/7
f 14/8/6 17/14/8 16/9/5
f 1/1/1 4/11/7 5/15/9
f 5/16/9 4/12/7 17/13/8
f 17/13/8 18/17/10 5/16/9
f 14/8/6 18/18/10 17/14/8
f 1/1/1 5/15/9 6/19/11
f 6/20/11 5/21/9 18/22/10
f 18/22/10 19/23/12 6/20/11
f 14/8/6 19/24/12 18/18/10
f 1/1/1 6/19/11 7/25/13
f 7/26/13 6/20/11 19/23/12
f 19/23/12 20/27/14 7/26/13
f 14/8/6 20/28/14 19/24/12
f 1/1/1 7/25/13 8/29/15
f 8/5/15 7/26/13 20/27/14
f 20/27/14 21/6/16 8/5/15
f 14/8/6 21/30/16 20/28/14
f 1/1/1 8/29/15 9/31/17
f 9/32/17 8/33/15 21/34/16
f 21/34/16 22/35/18 9/32/17
f 14/8/6 22/36/18 21/30/16
f 1/1/1 9/31/17 10/37/19
f 10/38/19 9/32/17 22/35/18
f 22/35/18 23/39/20 10/38/19
f 14/8/6 23/40/20 22/36/18
f 1/1/1 10/37/19 11/41/21
f 11/42/21 10/38/19 23/39/20
f 23/39/20 24/43/22 11/42/21
f 14/8/6 24/44/22 23/40/20
f 1/1/1 11/41/21 12/45/23
f 12/32/23 11/46/21 24/47/22
f 24/47/22 25/35/24 12/32/23
f 14/8/6 25/48/24 24/44/22
f 1/1/1 12/45/23 13/49/25
f 13/50/25 12/32/23 25/35/24
f 25/35/24 26/51/26 13/50/25
f 14/8/6 26/52/26 25/48/24
f 1/1/1 13/49/25 2/2/2
f 2/53/2 13/50/25 26/51/26
f 26/51/26 15/54/4 2/53/2
f 14/8/6 15/10/4 26/52/26
# 48 triangles in group

# 48 triangles total

